# xmcd
#
# Track frame offsets:
#	150
#	18446
#	38048
#	54869
#	72665
#	92233
#	100768
#	118010
#	144714
#	162045
#	182006
#	197964
#	214941
#	229944
#	251091
#	270187
#	287872
#	301777
#
# Disc length: 4278
#
# Revision: 1
# Processed by: cddbd v1.5.1PL0 Copyright (c) Steve Scherf et al.
# Submitted via: ExactAudioCopy v0.95a5
# Normalized: r0:TRMNUM
#
DISCID=0310b412
DTITLE=Mareko - White Sunday
DYEAR=2003
DGENRE=Hip-Hop
TTITLE0=Espionage
TTITLE1=Oh Shit feat. Psycho Les (Beatnuts)
TTITLE2=Street Rap feat. Inspectah Deck
TTITLE3=Mareko (Here to stay)
TTITLE4=Why Is That?
TTITLE5=White Sunday Sermon
TTITLE6=Legacy
TTITLE7=City Line
TTITLE8=Big Dummy feat. Celph Untitled
TTITLE9=Dont Need Protection feat. Scram Jones and Roc Raida (X-Ecutioners)
TTITLE10=Suburban Legend
TTITLE11=Let Ya'll Know feat. J-Ro and E-Swift (Tha Liks)
TTITLE12=This is me
TTITLE13=My Lady
TTITLE14=Major Flavour feat. Sadat X and J Sirvere
TTITLE15=Stop, Drop and Roll feat. Deceptikonz
TTITLE16=Hook it up feat. Savage
TTITLE17=Stop, Drop and Roll (Remix) feat. Scribe and Deceptikonz
EXTD=
EXTT0=
EXTT1=
EXTT2=
EXTT3=
EXTT4=
EXTT5=
EXTT6=
EXTT7=
EXTT8=
EXTT9=
EXTT10=
EXTT11=
EXTT12=
EXTT13=
EXTT14=
EXTT15=
EXTT16=
EXTT17=
PLAYORDER=
